{
    "asset" : {
        "generator" : "Khronos glTF Blender I/O v1.2.75",
        "version" : "2.0"
    },
    "scene" : 0,
    "scenes" : [
        {
            "name" : "Scene",
            "nodes" : [
                1,
                3,
                5
            ]
        }
    ],
    "nodes" : [
        {
            "name" : "Empty.001",
            "rotation" : [
                1,
                0,
                0,
                0
            ],
            "scale" : [
                1.0616495609283447,
                1.1755952835083008,
                0.9843201041221619
            ]
        },
        {
            "children" : [
                0
            ],
            "mesh" : 0,
            "name" : "ground",
            "scale" : [
                4.868033409118652,
                -0.34926724433898926,
                -8.894099235534668
            ],
            "translation" : [
                0,
                0,
                -11.401087760925293
            ]
        },
        {
            "camera" : 0,
            "name" : "Camera_Orientation",
            "rotation" : [
                -0.7071067690849304,
                0,
                0,
                0.7071067690849304
            ]
        },
        {
            "children" : [
                2
            ],
            "name" : "Camera",
            "rotation" : [
                0.483536034822464,
                0.33687159419059753,
                -0.20870360732078552,
                0.7804827094078064
            ],
            "translation" : [
                11.897250175476074,
                8.557971954345703,
                -0.49858522415161133
            ]
        },
        {
            "name" : "Empty",
            "scale" : [
                1.1566925048828125,
                1.1566925048828125,
                1.1566925048828125
            ]
        },
        {
            "children" : [
                4
            ],
            "mesh" : 1,
            "name" : "player",
            "scale" : [
                0.5096631050109863,
                0.5096631050109863,
                0.5096631050109863
            ],
            "translation" : [
                0,
                1.064828872680664,
                -5.729707717895508
            ]
        }
    ],
    "cameras" : [
        {
            "name" : "Camera",
            "orthographic" : {
                "xmag" : 21.914283752441406,
                "ymag" : 21.914283752441406,
                "zfar" : 45,
                "znear" : 9.999999974752427e-07
            },
            "type" : "orthographic"
        }
    ],
    "materials" : [
        {
            "doubleSided" : true,
            "emissiveFactor" : [
                1,
                1,
                1
            ],
            "emissiveTexture" : {
                "index" : 0,
                "texCoord" : 0
            },
            "name" : "Material",
            "pbrMetallicRoughness" : {}
        }
    ],
    "meshes" : [
        {
            "name" : "Cube",
            "primitives" : [
                {
                    "attributes" : {
                        "POSITION" : 0,
                        "NORMAL" : 1,
                        "TEXCOORD_0" : 2
                    },
                    "indices" : 3,
                    "material" : 0
                }
            ]
        },
        {
            "name" : "Cube.001",
            "primitives" : [
                {
                    "attributes" : {
                        "POSITION" : 4,
                        "NORMAL" : 5,
                        "TEXCOORD_0" : 6
                    },
                    "indices" : 3,
                    "material" : 0
                }
            ]
        }
    ],
    "textures" : [
        {
            "source" : 0
        }
    ],
    "images" : [
        {
            "bufferView" : 4,
            "mimeType" : "image/png",
            "name" : "pico-8"
        }
    ],
    "accessors" : [
        {
            "bufferView" : 0,
            "componentType" : 5126,
            "count" : 24,
            "max" : [
                1,
                1,
                1
            ],
            "min" : [
                -1,
                -1,
                -1
            ],
            "type" : "VEC3"
        },
        {
            "bufferView" : 1,
            "componentType" : 5126,
            "count" : 24,
            "type" : "VEC3"
        },
        {
            "bufferView" : 2,
            "componentType" : 5126,
            "count" : 24,
            "type" : "VEC2"
        },
        {
            "bufferView" : 3,
            "componentType" : 5123,
            "count" : 36,
            "type" : "SCALAR"
        },
        {
            "bufferView" : 5,
            "componentType" : 5126,
            "count" : 24,
            "max" : [
                1,
                1,
                1
            ],
            "min" : [
                -1,
                -1,
                -1
            ],
            "type" : "VEC3"
        },
        {
            "bufferView" : 6,
            "componentType" : 5126,
            "count" : 24,
            "type" : "VEC3"
        },
        {
            "bufferView" : 7,
            "componentType" : 5126,
            "count" : 24,
            "type" : "VEC2"
        }
    ],
    "bufferViews" : [
        {
            "buffer" : 0,
            "byteLength" : 288,
            "byteOffset" : 0
        },
        {
            "buffer" : 0,
            "byteLength" : 288,
            "byteOffset" : 288
        },
        {
            "buffer" : 0,
            "byteLength" : 192,
            "byteOffset" : 576
        },
        {
            "buffer" : 0,
            "byteLength" : 72,
            "byteOffset" : 768
        },
        {
            "buffer" : 0,
            "byteLength" : 155,
            "byteOffset" : 840
        },
        {
            "buffer" : 0,
            "byteLength" : 288,
            "byteOffset" : 996
        },
        {
            "buffer" : 0,
            "byteLength" : 288,
            "byteOffset" : 1284
        },
        {
            "buffer" : 0,
            "byteLength" : 192,
            "byteOffset" : 1572
        }
    ],
    "buffers" : [
        {
            "byteLength" : 1764,
            "uri" : "data:application/octet-stream;base64,"
        }
    ]
}
