{
    "asset" : {
        "generator" : "Khronos glTF Blender I/O v1.2.75",
        "version" : "2.0"
    },
    "scene" : 0,
    "scenes" : [
        {
            "name" : "Scene",
            "nodes" : [
                1,
                2,
                4,
                6,
                8
            ]
        }
    ],
    "nodes" : [
        {
            "name" : "hitbox_ground",
            "scale" : [
                1.0648958683013916,
                1.0648959875106812,
                1.0648959875106812
            ]
        },
        {
            "children" : [
                0
            ],
            "mesh" : 0,
            "name" : "ground",
            "scale" : [
                5.008098602294922,
                1,
                5.14142370223999
            ]
        },
        {
            "name" : "Light",
            "rotation" : [
                0.16907575726509094,
                0.7558803558349609,
                -0.27217137813568115,
                0.570947527885437
            ],
            "translation" : [
                4.076245307922363,
                5.903861999511719,
                -1.0054539442062378
            ]
        },
        {
            "camera" : 0,
            "name" : "Camera_Orientation",
            "rotation" : [
                -0.7071067690849304,
                0,
                0,
                0.7071067690849304
            ]
        },
        {
            "children" : [
                3
            ],
            "name" : "Camera",
            "rotation" : [
                0.6116700768470764,
                0.2955317795276642,
                -0.2640087604522705,
                0.6847043633460999
            ],
            "translation" : [
                20.543798446655273,
                7.006383419036865,
                19.35411834716797
            ]
        },
        {
            "name" : "hitbox_cube",
            "scale" : [
                1.1486828327178955,
                1.1486828327178955,
                1.1486828327178955
            ]
        },
        {
            "children" : [
                5
            ],
            "mesh" : 1,
            "name" : "cube",
            "translation" : [
                0.02186751365661621,
                7.30336856842041,
                0.02186751365661621
            ]
        },
        {
            "name" : "Empty",
            "rotation" : [
                0.003003525547683239,
                -0.009702937677502632,
                -0.00010021711932495236,
                0.9999485015869141
            ],
            "translation" : [
                0.003770112991333008,
                0.019078493118286133,
                0.06129002571105957
            ]
        },
        {
            "children" : [
                7
            ],
            "mesh" : 2,
            "name" : "other",
            "rotation" : [
                0,
                0.39369091391563416,
                0,
                0.9192428588867188
            ],
            "translation" : [
                0,
                2.0206215381622314,
                -3.9247097969055176
            ]
        }
    ],
    "cameras" : [
        {
            "name" : "Camera",
            "perspective" : {
                "yfov" : 0.39959648408210363,
                "zfar" : 100,
                "znear" : 0.10000000149011612
            },
            "type" : "perspective"
        }
    ],
    "materials" : [
        {
            "doubleSided" : true,
            "emissiveFactor" : [
                1,
                1,
                1
            ],
            "emissiveTexture" : {
                "index" : 0,
                "texCoord" : 0
            },
            "name" : "Material",
            "pbrMetallicRoughness" : {}
        }
    ],
    "meshes" : [
        {
            "name" : "Cube",
            "primitives" : [
                {
                    "attributes" : {
                        "POSITION" : 0,
                        "NORMAL" : 1,
                        "TEXCOORD_0" : 2
                    },
                    "indices" : 3,
                    "material" : 0
                }
            ]
        },
        {
            "name" : "Cube.001",
            "primitives" : [
                {
                    "attributes" : {
                        "POSITION" : 4,
                        "NORMAL" : 5,
                        "TEXCOORD_0" : 6
                    },
                    "indices" : 3,
                    "material" : 0
                }
            ]
        },
        {
            "name" : "other",
            "primitives" : [
                {
                    "attributes" : {
                        "POSITION" : 7,
                        "NORMAL" : 8,
                        "TEXCOORD_0" : 9
                    },
                    "indices" : 3,
                    "material" : 0
                }
            ]
        }
    ],
    "textures" : [
        {
            "source" : 0
        }
    ],
    "images" : [
        {
            "bufferView" : 4,
            "mimeType" : "image/png",
            "name" : "pico-8"
        }
    ],
    "accessors" : [
        {
            "bufferView" : 0,
            "componentType" : 5126,
            "count" : 24,
            "max" : [
                1,
                1,
                1
            ],
            "min" : [
                -1,
                -1,
                -1
            ],
            "type" : "VEC3"
        },
        {
            "bufferView" : 1,
            "componentType" : 5126,
            "count" : 24,
            "type" : "VEC3"
        },
        {
            "bufferView" : 2,
            "componentType" : 5126,
            "count" : 24,
            "type" : "VEC2"
        },
        {
            "bufferView" : 3,
            "componentType" : 5123,
            "count" : 36,
            "type" : "SCALAR"
        },
        {
            "bufferView" : 5,
            "componentType" : 5126,
            "count" : 24,
            "max" : [
                1,
                1,
                1
            ],
            "min" : [
                -1,
                -1,
                -1
            ],
            "type" : "VEC3"
        },
        {
            "bufferView" : 6,
            "componentType" : 5126,
            "count" : 24,
            "type" : "VEC3"
        },
        {
            "bufferView" : 7,
            "componentType" : 5126,
            "count" : 24,
            "type" : "VEC2"
        },
        {
            "bufferView" : 8,
            "componentType" : 5126,
            "count" : 24,
            "max" : [
                1,
                1,
                1
            ],
            "min" : [
                -1,
                -1,
                -1
            ],
            "type" : "VEC3"
        },
        {
            "bufferView" : 9,
            "componentType" : 5126,
            "count" : 24,
            "type" : "VEC3"
        },
        {
            "bufferView" : 10,
            "componentType" : 5126,
            "count" : 24,
            "type" : "VEC2"
        }
    ],
    "bufferViews" : [
        {
            "buffer" : 0,
            "byteLength" : 288,
            "byteOffset" : 0
        },
        {
            "buffer" : 0,
            "byteLength" : 288,
            "byteOffset" : 288
        },
        {
            "buffer" : 0,
            "byteLength" : 192,
            "byteOffset" : 576
        },
        {
            "buffer" : 0,
            "byteLength" : 72,
            "byteOffset" : 768
        },
        {
            "buffer" : 0,
            "byteLength" : 155,
            "byteOffset" : 840
        },
        {
            "buffer" : 0,
            "byteLength" : 288,
            "byteOffset" : 996
        },
        {
            "buffer" : 0,
            "byteLength" : 288,
            "byteOffset" : 1284
        },
        {
            "buffer" : 0,
            "byteLength" : 192,
            "byteOffset" : 1572
        },
        {
            "buffer" : 0,
            "byteLength" : 288,
            "byteOffset" : 1764
        },
        {
            "buffer" : 0,
            "byteLength" : 288,
            "byteOffset" : 2052
        },
        {
            "buffer" : 0,
            "byteLength" : 192,
            "byteOffset" : 2340
        }
    ],
    "buffers" : [
        {
            "byteLength" : 2532,
            "uri" : "data:application/octet-stream;base64,"
        }
    ]
}
