{
    "asset" : {
        "generator" : "Khronos glTF Blender I/O v1.3.48",
        "version" : "2.0"
    },
    "scene" : 0,
    "scenes" : [
        {
            "name" : "Scene",
            "nodes" : [
                0,
                1,
                3,
                4,
                5,
                6,
                11,
                12,
                13
            ]
        }
    ],
    "nodes" : [
        {
            "mesh" : 0,
            "name" : "one",
            "scale" : [
                0.45255041122436523,
                0.45255041122436523,
                0.45255041122436523
            ]
        },
        {
            "name" : "Light",
            "rotation" : [
                0.16907575726509094,
                0.7558803558349609,
                -0.27217137813568115,
                0.570947527885437
            ],
            "translation" : [
                4.076245307922363,
                5.903861999511719,
                -1.0054539442062378
            ]
        },
        {
            "camera" : 0,
            "name" : "Camera_Orientation",
            "rotation" : [
                -0.7071067690849304,
                0,
                0,
                0.7071067690849304
            ]
        },
        {
            "children" : [
                2
            ],
            "name" : "Camera",
            "rotation" : [
                0.006485071498900652,
                0.85001540184021,
                -0.5266139507293701,
                0.0104676503688097
            ],
            "translation" : [
                15.639618873596191,
                4.724505424499512,
                -11.170060157775879
            ]
        },
        {
            "mesh" : 1,
            "name" : "two",
            "scale" : [
                0.45255041122436523,
                0.45255041122436523,
                0.45255041122436523
            ],
            "translation" : [
                -1.5856901407241821,
                0,
                0
            ]
        },
        {
            "mesh" : 2,
            "name" : "tree",
            "scale" : [
                0.45255041122436523,
                0.45255041122436523,
                0.45255041122436523
            ],
            "translation" : [
                -3.110292434692383,
                0,
                0
            ]
        },
        {
            "mesh" : 3,
            "name" : "player",
            "scale" : [
                0.4456787407398224,
                0.8042347431182861,
                0.4456787407398224
            ],
            "translation" : [
                -4.7218475341796875,
                0,
                0
            ]
        },
        {
            "mesh" : 0,
            "name" : "cube_one",
            "scale" : [
                0.2541475296020508,
                0.2541475296020508,
                0.2541475296020508
            ],
            "translation" : [
                -1.9239473342895508,
                0.22303514182567596,
                -0.8565022945404053
            ]
        },
        {
            "mesh" : 3,
            "name" : "player_spawn",
            "scale" : [
                0.1462249457836151,
                0.2638653516769409,
                0.1462249457836151
            ],
            "translation" : [
                -0.1431722640991211,
                0.11603891849517822,
                0
            ]
        },
        {
            "mesh" : 4,
            "name" : "zone.001",
            "scale" : [
                0.6650660037994385,
                0.5572846531867981,
                0.7103034257888794
            ]
        },
        {
            "children" : [
                9
            ],
            "name" : "zone_detection",
            "scale" : [
                0.734432578086853,
                0.734432578086853,
                0.734432578086853
            ],
            "translation" : [
                0,
                0,
                -2.622271776199341
            ]
        },
        {
            "children" : [
                7,
                8,
                10
            ],
            "mesh" : 5,
            "name" : "arena",
            "translation" : [
                15.428359031677246,
                0,
                0
            ]
        },
        {
            "mesh" : 4,
            "name" : "zone",
            "translation" : [
                2.960670232772827,
                0,
                0
            ]
        },
        {
            "mesh" : 6,
            "name" : "circle",
            "translation" : [
                0,
                0,
                -5.024738311767578
            ]
        }
    ],
    "cameras" : [
        {
            "name" : "Camera",
            "perspective" : {
                "aspectRatio" : 1.7777777777777777,
                "yfov" : 0.39959648408210363,
                "zfar" : 100,
                "znear" : 0.10000000149011612
            },
            "type" : "perspective"
        }
    ],
    "materials" : [
        {
            "doubleSided" : true,
            "emissiveFactor" : [
                1,
                1,
                1
            ],
            "emissiveTexture" : {
                "index" : 0,
                "texCoord" : 0
            },
            "name" : "Kenny",
            "pbrMetallicRoughness" : {}
        },
        {
            "doubleSided" : true,
            "emissiveFactor" : [
                1,
                1,
                1
            ],
            "emissiveTexture" : {
                "index" : 1,
                "texCoord" : 0
            },
            "name" : "Kenny.001",
            "pbrMetallicRoughness" : {}
        }
    ],
    "meshes" : [
        {
            "name" : "Cube",
            "primitives" : [
                {
                    "attributes" : {
                        "POSITION" : 0,
                        "NORMAL" : 1,
                        "TEXCOORD_0" : 2
                    },
                    "indices" : 3,
                    "material" : 0
                }
            ]
        },
        {
            "name" : "Cube.001",
            "primitives" : [
                {
                    "attributes" : {
                        "POSITION" : 4,
                        "NORMAL" : 5,
                        "TEXCOORD_0" : 6
                    },
                    "indices" : 3,
                    "material" : 0
                }
            ]
        },
        {
            "name" : "Cube.002",
            "primitives" : [
                {
                    "attributes" : {
                        "POSITION" : 7,
                        "NORMAL" : 8,
                        "TEXCOORD_0" : 9
                    },
                    "indices" : 3,
                    "material" : 0
                }
            ]
        },
        {
            "name" : "Cube.003",
            "primitives" : [
                {
                    "attributes" : {
                        "POSITION" : 10,
                        "NORMAL" : 11,
                        "TEXCOORD_0" : 12
                    },
                    "indices" : 13,
                    "material" : 1
                }
            ]
        },
        {
            "name" : "Cube.005",
            "primitives" : [
                {
                    "attributes" : {
                        "POSITION" : 14,
                        "NORMAL" : 15,
                        "TEXCOORD_0" : 16
                    },
                    "indices" : 17,
                    "material" : 0
                }
            ]
        },
        {
            "name" : "Cube.004",
            "primitives" : [
                {
                    "attributes" : {
                        "POSITION" : 18,
                        "NORMAL" : 19,
                        "TEXCOORD_0" : 20
                    },
                    "indices" : 21,
                    "material" : 0
                }
            ]
        },
        {
            "name" : "Plane",
            "primitives" : [
                {
                    "attributes" : {
                        "POSITION" : 22,
                        "NORMAL" : 23,
                        "TEXCOORD_0" : 24
                    },
                    "indices" : 13,
                    "material" : 1
                }
            ]
        }
    ],
    "textures" : [
        {
            "sampler" : 0,
            "source" : 0
        },
        {
            "source" : 1
        }
    ],
    "images" : [
        {
            "bufferView" : 4,
            "mimeType" : "image/png",
            "name" : "colored_packed"
        },
        {
            "bufferView" : 15,
            "mimeType" : "image/png",
            "name" : "colored_transparent"
        }
    ],
    "accessors" : [
        {
            "bufferView" : 0,
            "componentType" : 5126,
            "count" : 24,
            "max" : [
                1,
                1,
                1
            ],
            "min" : [
                -1,
                -1,
                -1
            ],
            "type" : "VEC3"
        },
        {
            "bufferView" : 1,
            "componentType" : 5126,
            "count" : 24,
            "type" : "VEC3"
        },
        {
            "bufferView" : 2,
            "componentType" : 5126,
            "count" : 24,
            "type" : "VEC2"
        },
        {
            "bufferView" : 3,
            "componentType" : 5123,
            "count" : 36,
            "type" : "SCALAR"
        },
        {
            "bufferView" : 5,
            "componentType" : 5126,
            "count" : 24,
            "max" : [
                1,
                1,
                1
            ],
            "min" : [
                -1,
                -1,
                -1
            ],
            "type" : "VEC3"
        },
        {
            "bufferView" : 6,
            "componentType" : 5126,
            "count" : 24,
            "type" : "VEC3"
        },
        {
            "bufferView" : 7,
            "componentType" : 5126,
            "count" : 24,
            "type" : "VEC2"
        },
        {
            "bufferView" : 8,
            "componentType" : 5126,
            "count" : 24,
            "max" : [
                1,
                1,
                1
            ],
            "min" : [
                -1,
                -1,
                -1
            ],
            "type" : "VEC3"
        },
        {
            "bufferView" : 9,
            "componentType" : 5126,
            "count" : 24,
            "type" : "VEC3"
        },
        {
            "bufferView" : 10,
            "componentType" : 5126,
            "count" : 24,
            "type" : "VEC2"
        },
        {
            "bufferView" : 11,
            "componentType" : 5126,
            "count" : 4,
            "max" : [
                1,
                1.4998430013656616,
                -1
            ],
            "min" : [
                -1,
                -0.5001569986343384,
                -1
            ],
            "type" : "VEC3"
        },
        {
            "bufferView" : 12,
            "componentType" : 5126,
            "count" : 4,
            "type" : "VEC3"
        },
        {
            "bufferView" : 13,
            "componentType" : 5126,
            "count" : 4,
            "type" : "VEC2"
        },
        {
            "bufferView" : 14,
            "componentType" : 5123,
            "count" : 6,
            "type" : "SCALAR"
        },
        {
            "bufferView" : 16,
            "componentType" : 5126,
            "count" : 48,
            "max" : [
                1,
                0.44495290517807007,
                1
            ],
            "min" : [
                -1,
                -0.001559913158416748,
                -1
            ],
            "type" : "VEC3"
        },
        {
            "bufferView" : 17,
            "componentType" : 5126,
            "count" : 48,
            "type" : "VEC3"
        },
        {
            "bufferView" : 18,
            "componentType" : 5126,
            "count" : 48,
            "type" : "VEC2"
        },
        {
            "bufferView" : 19,
            "componentType" : 5123,
            "count" : 84,
            "type" : "SCALAR"
        },
        {
            "bufferView" : 20,
            "componentType" : 5126,
            "count" : 340,
            "max" : [
                3.8162858486175537,
                0.013561129570007324,
                3.947017192840576
            ],
            "min" : [
                -3.7522714138031006,
                -1.407470703125,
                -4.0110344886779785
            ],
            "type" : "VEC3"
        },
        {
            "bufferView" : 21,
            "componentType" : 5126,
            "count" : 340,
            "type" : "VEC3"
        },
        {
            "bufferView" : 22,
            "componentType" : 5126,
            "count" : 340,
            "type" : "VEC2"
        },
        {
            "bufferView" : 23,
            "componentType" : 5123,
            "count" : 768,
            "type" : "SCALAR"
        },
        {
            "bufferView" : 24,
            "componentType" : 5126,
            "count" : 4,
            "max" : [
                1,
                0,
                1
            ],
            "min" : [
                -1,
                0,
                -1
            ],
            "type" : "VEC3"
        },
        {
            "bufferView" : 25,
            "componentType" : 5126,
            "count" : 4,
            "type" : "VEC3"
        },
        {
            "bufferView" : 26,
            "componentType" : 5126,
            "count" : 4,
            "type" : "VEC2"
        }
    ],
    "bufferViews" : [
        {
            "buffer" : 0,
            "byteLength" : 288,
            "byteOffset" : 0
        },
        {
            "buffer" : 0,
            "byteLength" : 288,
            "byteOffset" : 288
        },
        {
            "buffer" : 0,
            "byteLength" : 192,
            "byteOffset" : 576
        },
        {
            "buffer" : 0,
            "byteLength" : 72,
            "byteOffset" : 768
        },
        {
            "buffer" : 0,
            "byteLength" : 23076,
            "byteOffset" : 840
        },
        {
            "buffer" : 0,
            "byteLength" : 288,
            "byteOffset" : 23916
        },
        {
            "buffer" : 0,
            "byteLength" : 288,
            "byteOffset" : 24204
        },
        {
            "buffer" : 0,
            "byteLength" : 192,
            "byteOffset" : 24492
        },
        {
            "buffer" : 0,
            "byteLength" : 288,
            "byteOffset" : 24684
        },
        {
            "buffer" : 0,
            "byteLength" : 288,
            "byteOffset" : 24972
        },
        {
            "buffer" : 0,
            "byteLength" : 192,
            "byteOffset" : 25260
        },
        {
            "buffer" : 0,
            "byteLength" : 48,
            "byteOffset" : 25452
        },
        {
            "buffer" : 0,
            "byteLength" : 48,
            "byteOffset" : 25500
        },
        {
            "buffer" : 0,
            "byteLength" : 32,
            "byteOffset" : 25548
        },
        {
            "buffer" : 0,
            "byteLength" : 12,
            "byteOffset" : 25580
        },
        {
            "buffer" : 0,
            "byteLength" : 24543,
            "byteOffset" : 25592
        },
        {
            "buffer" : 0,
            "byteLength" : 576,
            "byteOffset" : 50136
        },
        {
            "buffer" : 0,
            "byteLength" : 576,
            "byteOffset" : 50712
        },
        {
            "buffer" : 0,
            "byteLength" : 384,
            "byteOffset" : 51288
        },
        {
            "buffer" : 0,
            "byteLength" : 168,
            "byteOffset" : 51672
        },
        {
            "buffer" : 0,
            "byteLength" : 4080,
            "byteOffset" : 51840
        },
        {
            "buffer" : 0,
            "byteLength" : 4080,
            "byteOffset" : 55920
        },
        {
            "buffer" : 0,
            "byteLength" : 2720,
            "byteOffset" : 60000
        },
        {
            "buffer" : 0,
            "byteLength" : 1536,
            "byteOffset" : 62720
        },
        {
            "buffer" : 0,
            "byteLength" : 48,
            "byteOffset" : 64256
        },
        {
            "buffer" : 0,
            "byteLength" : 48,
            "byteOffset" : 64304
        },
        {
            "buffer" : 0,
            "byteLength" : 32,
            "byteOffset" : 64352
        }
    ],
    "samplers" : [
        {
            "magFilter" : 9728,
            "minFilter" : 9984
        }
    ],
    "buffers" : [
        {
            "byteLength" : 64384,
            "uri" : "data:application/octet-stream;base64,"
        }
    ]
}
