{
    "asset" : {
        "generator" : "Khronos glTF Blender I/O v1.3.48",
        "version" : "2.0"
    },
    "scene" : 0,
    "scenes" : [
        {
            "name" : "Scene",
            "nodes" : [
                0,
                2,
                3,
                4,
                5,
                6,
                7
            ]
        }
    ],
    "nodes" : [
        {
            "mesh" : 0,
            "name" : "player"
        },
        {
            "camera" : 0,
            "name" : "Camera_Orientation",
            "rotation" : [
                -0.7071067690849304,
                0,
                0,
                0.7071067690849304
            ]
        },
        {
            "children" : [
                1
            ],
            "name" : "Camera",
            "translation" : [
                0,
                33.2400016784668,
                0
            ]
        },
        {
            "mesh" : 1,
            "name" : "asteroid3",
            "translation" : [
                0,
                0,
                -9.48345947265625
            ]
        },
        {
            "mesh" : 2,
            "name" : "asteroid2",
            "translation" : [
                0,
                0,
                9.345518112182617
            ]
        },
        {
            "mesh" : 3,
            "name" : "asteroid1",
            "translation" : [
                9.069636344909668,
                0,
                0
            ]
        },
        {
            "mesh" : 4,
            "name" : "shot",
            "translation" : [
                -8.793753623962402,
                0,
                0
            ]
        },
        {
            "mesh" : 5,
            "name" : "Plane",
            "scale" : [
                13.922643661499023,
                13.922643661499023,
                13.922643661499023
            ],
            "translation" : [
                0,
                -6.124813079833984,
                0
            ]
        }
    ],
    "cameras" : [
        {
            "name" : "Camera",
            "perspective" : {
                "aspectRatio" : 1,
                "yfov" : 0.6981316804885864,
                "zfar" : 100,
                "znear" : 0.10000000149011612
            },
            "type" : "perspective"
        }
    ],
    "materials" : [
        {
            "doubleSided" : true,
            "emissiveFactor" : [
                0,
                0,
                0
            ],
            "name" : "Material",
            "pbrMetallicRoughness" : {
                "baseColorTexture" : {
                    "index" : 0,
                    "texCoord" : 0
                },
                "metallicFactor" : 0,
                "roughnessFactor" : 0.4000000059604645
            }
        }
    ],
    "meshes" : [
        {
            "name" : "Cube",
            "primitives" : [
                {
                    "attributes" : {
                        "POSITION" : 0,
                        "NORMAL" : 1,
                        "TEXCOORD_0" : 2
                    },
                    "indices" : 3,
                    "material" : 0
                }
            ]
        },
        {
            "name" : "Cube.001",
            "primitives" : [
                {
                    "attributes" : {
                        "POSITION" : 4,
                        "NORMAL" : 5,
                        "TEXCOORD_0" : 6
                    },
                    "indices" : 7,
                    "material" : 0
                }
            ]
        },
        {
            "name" : "Cube.002",
            "primitives" : [
                {
                    "attributes" : {
                        "POSITION" : 8,
                        "NORMAL" : 9,
                        "TEXCOORD_0" : 10
                    },
                    "indices" : 11,
                    "material" : 0
                }
            ]
        },
        {
            "name" : "Cube.003",
            "primitives" : [
                {
                    "attributes" : {
                        "POSITION" : 12,
                        "NORMAL" : 13,
                        "TEXCOORD_0" : 14
                    },
                    "indices" : 15,
                    "material" : 0
                }
            ]
        },
        {
            "name" : "Cube.004",
            "primitives" : [
                {
                    "attributes" : {
                        "POSITION" : 16,
                        "NORMAL" : 17,
                        "TEXCOORD_0" : 18
                    },
                    "indices" : 19,
                    "material" : 0
                }
            ]
        },
        {
            "name" : "Plane",
            "primitives" : [
                {
                    "attributes" : {
                        "POSITION" : 20,
                        "NORMAL" : 21,
                        "TEXCOORD_0" : 22
                    },
                    "indices" : 19,
                    "material" : 0
                }
            ]
        }
    ],
    "textures" : [
        {
            "sampler" : 0,
            "source" : 0
        }
    ],
    "images" : [
        {
            "bufferView" : 4,
            "mimeType" : "image/png",
            "name" : "ateroids_palete"
        }
    ],
    "accessors" : [
        {
            "bufferView" : 0,
            "componentType" : 5126,
            "count" : 314,
            "max" : [
                0.5,
                0.19999998807907104,
                0.8162333965301514
            ],
            "min" : [
                -0.5,
                -0.19999998807907104,
                -1
            ],
            "type" : "VEC3"
        },
        {
            "bufferView" : 1,
            "componentType" : 5126,
            "count" : 314,
            "type" : "VEC3"
        },
        {
            "bufferView" : 2,
            "componentType" : 5126,
            "count" : 314,
            "type" : "VEC2"
        },
        {
            "bufferView" : 3,
            "componentType" : 5123,
            "count" : 528,
            "type" : "SCALAR"
        },
        {
            "bufferView" : 5,
            "componentType" : 5126,
            "count" : 528,
            "max" : [
                1.066364049911499,
                0.989890992641449,
                1.0311545133590698
            ],
            "min" : [
                -0.9754937291145325,
                -0.9941185712814331,
                -1.0477204322814941
            ],
            "type" : "VEC3"
        },
        {
            "bufferView" : 6,
            "componentType" : 5126,
            "count" : 528,
            "type" : "VEC3"
        },
        {
            "bufferView" : 7,
            "componentType" : 5126,
            "count" : 528,
            "type" : "VEC2"
        },
        {
            "bufferView" : 8,
            "componentType" : 5123,
            "count" : 792,
            "type" : "SCALAR"
        },
        {
            "bufferView" : 9,
            "componentType" : 5126,
            "count" : 544,
            "max" : [
                1.08579421043396,
                1.0641065835952759,
                1.0498380661010742
            ],
            "min" : [
                -1.0497093200683594,
                -1.0683341026306152,
                -1.050004005432129
            ],
            "type" : "VEC3"
        },
        {
            "bufferView" : 10,
            "componentType" : 5126,
            "count" : 544,
            "type" : "VEC3"
        },
        {
            "bufferView" : 11,
            "componentType" : 5126,
            "count" : 544,
            "type" : "VEC2"
        },
        {
            "bufferView" : 12,
            "componentType" : 5123,
            "count" : 816,
            "type" : "SCALAR"
        },
        {
            "bufferView" : 13,
            "componentType" : 5126,
            "count" : 464,
            "max" : [
                1.214771032333374,
                1.1144770383834839,
                1.1111400127410889
            ],
            "min" : [
                -1.1472787857055664,
                -1.1342723369598389,
                -1.1913522481918335
            ],
            "type" : "VEC3"
        },
        {
            "bufferView" : 14,
            "componentType" : 5126,
            "count" : 464,
            "type" : "VEC3"
        },
        {
            "bufferView" : 15,
            "componentType" : 5126,
            "count" : 464,
            "type" : "VEC2"
        },
        {
            "bufferView" : 16,
            "componentType" : 5123,
            "count" : 696,
            "type" : "SCALAR"
        },
        {
            "bufferView" : 17,
            "componentType" : 5126,
            "count" : 4,
            "max" : [
                0.09467081725597382,
                0.00589752197265625,
                0.32500001788139343
            ],
            "min" : [
                -0.10532987117767334,
                0.00589752197265625,
                -0.17499999701976776
            ],
            "type" : "VEC3"
        },
        {
            "bufferView" : 18,
            "componentType" : 5126,
            "count" : 4,
            "type" : "VEC3"
        },
        {
            "bufferView" : 19,
            "componentType" : 5126,
            "count" : 4,
            "type" : "VEC2"
        },
        {
            "bufferView" : 20,
            "componentType" : 5123,
            "count" : 6,
            "type" : "SCALAR"
        },
        {
            "bufferView" : 21,
            "componentType" : 5126,
            "count" : 4,
            "max" : [
                1,
                0,
                1
            ],
            "min" : [
                -1,
                0,
                -1
            ],
            "type" : "VEC3"
        },
        {
            "bufferView" : 22,
            "componentType" : 5126,
            "count" : 4,
            "type" : "VEC3"
        },
        {
            "bufferView" : 23,
            "componentType" : 5126,
            "count" : 4,
            "type" : "VEC2"
        }
    ],
    "bufferViews" : [
        {
            "buffer" : 0,
            "byteLength" : 3768,
            "byteOffset" : 0
        },
        {
            "buffer" : 0,
            "byteLength" : 3768,
            "byteOffset" : 3768
        },
        {
            "buffer" : 0,
            "byteLength" : 2512,
            "byteOffset" : 7536
        },
        {
            "buffer" : 0,
            "byteLength" : 1056,
            "byteOffset" : 10048
        },
        {
            "buffer" : 0,
            "byteLength" : 105,
            "byteOffset" : 11104
        },
        {
            "buffer" : 0,
            "byteLength" : 6336,
            "byteOffset" : 11212
        },
        {
            "buffer" : 0,
            "byteLength" : 6336,
            "byteOffset" : 17548
        },
        {
            "buffer" : 0,
            "byteLength" : 4224,
            "byteOffset" : 23884
        },
        {
            "buffer" : 0,
            "byteLength" : 1584,
            "byteOffset" : 28108
        },
        {
            "buffer" : 0,
            "byteLength" : 6528,
            "byteOffset" : 29692
        },
        {
            "buffer" : 0,
            "byteLength" : 6528,
            "byteOffset" : 36220
        },
        {
            "buffer" : 0,
            "byteLength" : 4352,
            "byteOffset" : 42748
        },
        {
            "buffer" : 0,
            "byteLength" : 1632,
            "byteOffset" : 47100
        },
        {
            "buffer" : 0,
            "byteLength" : 5568,
            "byteOffset" : 48732
        },
        {
            "buffer" : 0,
            "byteLength" : 5568,
            "byteOffset" : 54300
        },
        {
            "buffer" : 0,
            "byteLength" : 3712,
            "byteOffset" : 59868
        },
        {
            "buffer" : 0,
            "byteLength" : 1392,
            "byteOffset" : 63580
        },
        {
            "buffer" : 0,
            "byteLength" : 48,
            "byteOffset" : 64972
        },
        {
            "buffer" : 0,
            "byteLength" : 48,
            "byteOffset" : 65020
        },
        {
            "buffer" : 0,
            "byteLength" : 32,
            "byteOffset" : 65068
        },
        {
            "buffer" : 0,
            "byteLength" : 12,
            "byteOffset" : 65100
        },
        {
            "buffer" : 0,
            "byteLength" : 48,
            "byteOffset" : 65112
        },
        {
            "buffer" : 0,
            "byteLength" : 48,
            "byteOffset" : 65160
        },
        {
            "buffer" : 0,
            "byteLength" : 32,
            "byteOffset" : 65208
        }
    ],
    "samplers" : [
        {
            "magFilter" : 9728,
            "minFilter" : 9984
        }
    ],
    "buffers" : [
        {
            "byteLength" : 65240,
            "uri" : "data:application/octet-stream;base64,"
        }
    ]
}
