{
    "asset" : {
        "generator" : "Khronos glTF Blender I/O v1.3.48",
        "version" : "2.0"
    },
    "scene" : 0,
    "scenes" : [
        {
            "name" : "Scene",
            "nodes" : [
                0,
                2,
                3,
                4,
                5,
                6,
                7,
                8,
                9,
                10,
                11,
                12,
                13,
                14,
                15,
                16,
                17,
                18,
                19,
                20,
                21,
                22,
                23,
                24,
                25,
                26,
                27,
                28,
                29,
                30,
                31,
                32
            ]
        }
    ],
    "nodes" : [
        {
            "name" : "Light",
            "rotation" : [
                0.16907575726509094,
                0.7558803558349609,
                -0.27217137813568115,
                0.570947527885437
            ],
            "translation" : [
                1.3299870491027832,
                3.484926700592041,
                0.10190856456756592
            ]
        },
        {
            "camera" : 0,
            "name" : "Camera_Orientation",
            "rotation" : [
                -0.7071067690849304,
                0,
                0,
                0.7071067690849304
            ]
        },
        {
            "children" : [
                1
            ],
            "name" : "Camera",
            "rotation" : [
                0.483536034822464,
                0.33687159419059753,
                -0.20870360732078552,
                0.7804827094078064
            ],
            "translation" : [
                8.794934272766113,
                5.732492923736572,
                8.262079238891602
            ]
        },
        {
            "mesh" : 0,
            "name" : "Plane"
        },
        {
            "mesh" : 1,
            "name" : "player",
            "scale" : [
                0.3226480484008789,
                0.3226480484008789,
                0.3226480484008789
            ],
            "translation" : [
                0,
                0.3013371229171753,
                0
            ]
        },
        {
            "mesh" : 2,
            "name" : "Cube.002",
            "scale" : [
                0.3226480484008789,
                0.3226480484008789,
                0.3226480484008789
            ],
            "translation" : [
                1.8385815620422363,
                0.3013371229171753,
                -1.9864178895950317
            ]
        },
        {
            "mesh" : 2,
            "name" : "Cube.009",
            "rotation" : [
                0,
                -0.6427876353263855,
                0,
                0.766044557094574
            ],
            "scale" : [
                0.3226480484008789,
                0.3226480484008789,
                0.3226480484008789
            ],
            "translation" : [
                1.8385815620422363,
                0.3013371229171753,
                -1.9864178895950317
            ]
        },
        {
            "mesh" : 2,
            "name" : "Cube.001",
            "scale" : [
                0.3226480484008789,
                0.3226480484008789,
                0.3226480484008789
            ],
            "translation" : [
                1.0098254680633545,
                0.3013371229171753,
                -1.9864178895950317
            ]
        },
        {
            "mesh" : 2,
            "name" : "Cube.003",
            "rotation" : [
                0,
                -0.6427876353263855,
                0,
                0.766044557094574
            ],
            "scale" : [
                0.3226480484008789,
                0.3226480484008789,
                0.3226480484008789
            ],
            "translation" : [
                1.0098254680633545,
                0.3013371229171753,
                -1.9864178895950317
            ]
        },
        {
            "mesh" : 2,
            "name" : "Cube.004",
            "scale" : [
                0.3226480484008789,
                0.3226480484008789,
                0.3226480484008789
            ],
            "translation" : [
                2.1778292655944824,
                0.3013371229171753,
                -1.3952405452728271
            ]
        },
        {
            "mesh" : 2,
            "name" : "Cube.005",
            "rotation" : [
                0,
                -0.6427876353263855,
                0,
                0.766044557094574
            ],
            "scale" : [
                0.3226480484008789,
                0.3226480484008789,
                0.3226480484008789
            ],
            "translation" : [
                2.1778292655944824,
                0.3013371229171753,
                -1.3952405452728271
            ]
        },
        {
            "mesh" : 2,
            "name" : "Cube.006",
            "scale" : [
                0.3226480484008789,
                0.3226480484008789,
                0.3226480484008789
            ],
            "translation" : [
                1.3490732908248901,
                0.3013371229171753,
                -1.3952405452728271
            ]
        },
        {
            "mesh" : 2,
            "name" : "Cube.007",
            "rotation" : [
                0,
                -0.6427876353263855,
                0,
                0.766044557094574
            ],
            "scale" : [
                0.3226480484008789,
                0.3226480484008789,
                0.3226480484008789
            ],
            "translation" : [
                1.3490732908248901,
                0.3013371229171753,
                -1.3952405452728271
            ]
        },
        {
            "mesh" : 2,
            "name" : "Cube.008",
            "scale" : [
                0.3226480484008789,
                0.3226480484008789,
                0.3226480484008789
            ],
            "translation" : [
                2.136974334716797,
                0.3013371229171753,
                -2.924002170562744
            ]
        },
        {
            "mesh" : 2,
            "name" : "Cube.010",
            "rotation" : [
                0,
                -0.6427876353263855,
                0,
                0.766044557094574
            ],
            "scale" : [
                0.3226480484008789,
                0.3226480484008789,
                0.3226480484008789
            ],
            "translation" : [
                2.136974334716797,
                0.3013371229171753,
                -2.924002170562744
            ]
        },
        {
            "mesh" : 2,
            "name" : "Cube.011",
            "scale" : [
                0.3226480484008789,
                0.3226480484008789,
                0.3226480484008789
            ],
            "translation" : [
                1.3082181215286255,
                0.3013371229171753,
                -2.924002170562744
            ]
        },
        {
            "mesh" : 2,
            "name" : "Cube.012",
            "rotation" : [
                0,
                -0.6427876353263855,
                0,
                0.766044557094574
            ],
            "scale" : [
                0.3226480484008789,
                0.3226480484008789,
                0.3226480484008789
            ],
            "translation" : [
                1.3082181215286255,
                0.3013371229171753,
                -2.924002170562744
            ]
        },
        {
            "mesh" : 2,
            "name" : "Cube.013",
            "scale" : [
                0.3226480484008789,
                0.3226480484008789,
                0.3226480484008789
            ],
            "translation" : [
                2.476222038269043,
                0.3013371229171753,
                -2.332824945449829
            ]
        },
        {
            "mesh" : 2,
            "name" : "Cube.014",
            "rotation" : [
                0,
                -0.6427876353263855,
                0,
                0.766044557094574
            ],
            "scale" : [
                0.3226480484008789,
                0.3226480484008789,
                0.3226480484008789
            ],
            "translation" : [
                2.476222038269043,
                0.3013371229171753,
                -2.332824945449829
            ]
        },
        {
            "mesh" : 2,
            "name" : "Cube.015",
            "scale" : [
                0.3226480484008789,
                0.3226480484008789,
                0.3226480484008789
            ],
            "translation" : [
                1.6474659442901611,
                0.3013371229171753,
                -2.332824945449829
            ]
        },
        {
            "mesh" : 2,
            "name" : "Cube.016",
            "rotation" : [
                0,
                -0.6427876353263855,
                0,
                0.766044557094574
            ],
            "scale" : [
                0.3226480484008789,
                0.3226480484008789,
                0.3226480484008789
            ],
            "translation" : [
                1.6474659442901611,
                0.3013371229171753,
                -2.332824945449829
            ]
        },
        {
            "mesh" : 3,
            "name" : "Cube.017",
            "scale" : [
                0.1473742425441742,
                0.1473742425441742,
                0.1473742425441742
            ],
            "translation" : [
                -1.6595295667648315,
                0.08350694179534912,
                -1.3952405452728271
            ]
        },
        {
            "mesh" : 3,
            "name" : "Cube.018",
            "rotation" : [
                0,
                -0.3331569731235504,
                0,
                0.9428713917732239
            ],
            "scale" : [
                0.1473742425441742,
                0.1473742425441742,
                0.1473742425441742
            ],
            "translation" : [
                -1.1771372556686401,
                0.08350694179534912,
                -1.3952405452728271
            ]
        },
        {
            "mesh" : 3,
            "name" : "Cube.019",
            "rotation" : [
                0,
                0.317426860332489,
                0,
                0.948282778263092
            ],
            "scale" : [
                0.1473742425441742,
                0.1473742425441742,
                0.1473742425441742
            ],
            "translation" : [
                -1.1771372556686401,
                0.08350694179534912,
                -1.7400678396224976
            ]
        },
        {
            "mesh" : 3,
            "name" : "Cube.020",
            "rotation" : [
                0,
                -0.9289582371711731,
                0,
                0.3701845705509186
            ],
            "scale" : [
                0.1473742425441742,
                0.1473742425441742,
                0.1473742425441742
            ],
            "translation" : [
                -1.7469103336334229,
                0.08350694179534912,
                -1.8148069381713867
            ]
        },
        {
            "mesh" : 3,
            "name" : "Cube.021",
            "rotation" : [
                0,
                -0.999217689037323,
                0,
                0.039547573775053024
            ],
            "scale" : [
                0.1473742425441742,
                0.1473742425441742,
                0.1473742425441742
            ],
            "translation" : [
                -2.0970916748046875,
                0.08350694179534912,
                -1.483030915260315
            ]
        },
        {
            "mesh" : 3,
            "name" : "Cube.022",
            "rotation" : [
                0,
                -0.7634086012840271,
                0,
                0.6459159255027771
            ],
            "scale" : [
                0.1473742425441742,
                0.1473742425441742,
                0.1473742425441742
            ],
            "translation" : [
                -1.8599292039871216,
                0.08350694179534912,
                -1.2327115535736084
            ]
        },
        {
            "mesh" : 3,
            "name" : "Cube.023",
            "scale" : [
                0.1473742425441742,
                0.1473742425441742,
                0.1473742425441742
            ],
            "translation" : [
                0.9006351232528687,
                0.08350694179534912,
                2.76990008354187
            ]
        },
        {
            "mesh" : 3,
            "name" : "Cube.024",
            "rotation" : [
                0,
                -0.3331569731235504,
                0,
                0.9428713917732239
            ],
            "scale" : [
                0.1473742425441742,
                0.1473742425441742,
                0.1473742425441742
            ],
            "translation" : [
                1.38302743434906,
                0.08350694179534912,
                2.76990008354187
            ]
        },
        {
            "mesh" : 3,
            "name" : "Cube.025",
            "rotation" : [
                0,
                0.317426860332489,
                0,
                0.948282778263092
            ],
            "scale" : [
                0.1473742425441742,
                0.1473742425441742,
                0.1473742425441742
            ],
            "translation" : [
                1.38302743434906,
                0.08350694179534912,
                2.42507266998291
            ]
        },
        {
            "mesh" : 3,
            "name" : "Cube.026",
            "rotation" : [
                0,
                -0.9289582371711731,
                0,
                0.3701845705509186
            ],
            "scale" : [
                0.1473742425441742,
                0.1473742425441742,
                0.1473742425441742
            ],
            "translation" : [
                0.8132543563842773,
                0.08350694179534912,
                2.3503336906433105
            ]
        },
        {
            "mesh" : 3,
            "name" : "Cube.027",
            "rotation" : [
                0,
                -0.999217689037323,
                0,
                0.039547573775053024
            ],
            "scale" : [
                0.1473742425441742,
                0.1473742425441742,
                0.1473742425441742
            ],
            "translation" : [
                0.4630730152130127,
                0.08350694179534912,
                2.682109832763672
            ]
        },
        {
            "mesh" : 3,
            "name" : "Cube.028",
            "rotation" : [
                0,
                -0.7634086012840271,
                0,
                0.6459159255027771
            ],
            "scale" : [
                0.1473742425441742,
                0.1473742425441742,
                0.1473742425441742
            ],
            "translation" : [
                0.7002354860305786,
                0.08350694179534912,
                2.932429075241089
            ]
        }
    ],
    "cameras" : [
        {
            "name" : "Camera",
            "orthographic" : {
                "xmag" : 6.514286041259766,
                "ymag" : 6.514286041259766,
                "zfar" : 100,
                "znear" : 0.10000000149011612
            },
            "type" : "orthographic"
        }
    ],
    "materials" : [
        {
            "doubleSided" : true,
            "emissiveFactor" : [
                0,
                0,
                0
            ],
            "name" : "Material",
            "pbrMetallicRoughness" : {
                "baseColorTexture" : {
                    "index" : 0,
                    "texCoord" : 0
                },
                "metallicFactor" : 0,
                "roughnessFactor" : 0.4000000059604645
            }
        },
        {
            "alphaMode" : "BLEND",
            "doubleSided" : true,
            "emissiveFactor" : [
                0,
                0,
                0
            ],
            "name" : "Material.001",
            "pbrMetallicRoughness" : {
                "baseColorTexture" : {
                    "index" : 1,
                    "texCoord" : 0
                },
                "metallicFactor" : 0,
                "roughnessFactor" : 0.5
            }
        }
    ],
    "meshes" : [
        {
            "name" : "Plane.002",
            "primitives" : [
                {
                    "attributes" : {
                        "POSITION" : 0,
                        "NORMAL" : 1,
                        "TEXCOORD_0" : 2
                    },
                    "indices" : 3,
                    "material" : 0
                }
            ]
        },
        {
            "name" : "Cube.001",
            "primitives" : [
                {
                    "attributes" : {
                        "POSITION" : 4,
                        "NORMAL" : 5,
                        "TEXCOORD_0" : 6
                    },
                    "indices" : 7,
                    "material" : 1
                }
            ]
        },
        {
            "name" : "Cube.002",
            "primitives" : [
                {
                    "attributes" : {
                        "POSITION" : 8,
                        "NORMAL" : 9,
                        "TEXCOORD_0" : 10
                    },
                    "indices" : 7,
                    "material" : 1
                }
            ]
        },
        {
            "name" : "Cube.003",
            "primitives" : [
                {
                    "attributes" : {
                        "POSITION" : 11,
                        "NORMAL" : 12,
                        "TEXCOORD_0" : 13
                    },
                    "indices" : 7,
                    "material" : 1
                }
            ]
        }
    ],
    "textures" : [
        {
            "sampler" : 0,
            "source" : 0
        },
        {
            "sampler" : 1,
            "source" : 1
        }
    ],
    "images" : [
        {
            "bufferView" : 4,
            "mimeType" : "image/png",
            "name" : "colored_packed"
        },
        {
            "bufferView" : 9,
            "mimeType" : "image/png",
            "name" : "colored_transparent"
        }
    ],
    "accessors" : [
        {
            "bufferView" : 0,
            "componentType" : 5126,
            "count" : 99,
            "max" : [
                5,
                0,
                5
            ],
            "min" : [
                -5,
                0,
                -5
            ],
            "type" : "VEC3"
        },
        {
            "bufferView" : 1,
            "componentType" : 5126,
            "count" : 99,
            "type" : "VEC3"
        },
        {
            "bufferView" : 2,
            "componentType" : 5126,
            "count" : 99,
            "type" : "VEC2"
        },
        {
            "bufferView" : 3,
            "componentType" : 5123,
            "count" : 216,
            "type" : "SCALAR"
        },
        {
            "bufferView" : 5,
            "componentType" : 5126,
            "count" : 20,
            "max" : [
                0,
                1,
                1
            ],
            "min" : [
                -0.03486233949661255,
                -1,
                -1
            ],
            "type" : "VEC3"
        },
        {
            "bufferView" : 6,
            "componentType" : 5126,
            "count" : 20,
            "type" : "VEC3"
        },
        {
            "bufferView" : 7,
            "componentType" : 5126,
            "count" : 20,
            "type" : "VEC2"
        },
        {
            "bufferView" : 8,
            "componentType" : 5123,
            "count" : 30,
            "type" : "SCALAR"
        },
        {
            "bufferView" : 10,
            "componentType" : 5126,
            "count" : 20,
            "max" : [
                0,
                1,
                1
            ],
            "min" : [
                -0.03486233949661255,
                -1,
                -1
            ],
            "type" : "VEC3"
        },
        {
            "bufferView" : 11,
            "componentType" : 5126,
            "count" : 20,
            "type" : "VEC3"
        },
        {
            "bufferView" : 12,
            "componentType" : 5126,
            "count" : 20,
            "type" : "VEC2"
        },
        {
            "bufferView" : 13,
            "componentType" : 5126,
            "count" : 20,
            "max" : [
                0,
                1,
                1
            ],
            "min" : [
                -0.03486233949661255,
                -1,
                -1
            ],
            "type" : "VEC3"
        },
        {
            "bufferView" : 14,
            "componentType" : 5126,
            "count" : 20,
            "type" : "VEC3"
        },
        {
            "bufferView" : 15,
            "componentType" : 5126,
            "count" : 20,
            "type" : "VEC2"
        }
    ],
    "bufferViews" : [
        {
            "buffer" : 0,
            "byteLength" : 1188,
            "byteOffset" : 0
        },
        {
            "buffer" : 0,
            "byteLength" : 1188,
            "byteOffset" : 1188
        },
        {
            "buffer" : 0,
            "byteLength" : 792,
            "byteOffset" : 2376
        },
        {
            "buffer" : 0,
            "byteLength" : 432,
            "byteOffset" : 3168
        },
        {
            "buffer" : 0,
            "byteLength" : 23076,
            "byteOffset" : 3600
        },
        {
            "buffer" : 0,
            "byteLength" : 240,
            "byteOffset" : 26676
        },
        {
            "buffer" : 0,
            "byteLength" : 240,
            "byteOffset" : 26916
        },
        {
            "buffer" : 0,
            "byteLength" : 160,
            "byteOffset" : 27156
        },
        {
            "buffer" : 0,
            "byteLength" : 60,
            "byteOffset" : 27316
        },
        {
            "buffer" : 0,
            "byteLength" : 24543,
            "byteOffset" : 27376
        },
        {
            "buffer" : 0,
            "byteLength" : 240,
            "byteOffset" : 51920
        },
        {
            "buffer" : 0,
            "byteLength" : 240,
            "byteOffset" : 52160
        },
        {
            "buffer" : 0,
            "byteLength" : 160,
            "byteOffset" : 52400
        },
        {
            "buffer" : 0,
            "byteLength" : 240,
            "byteOffset" : 52560
        },
        {
            "buffer" : 0,
            "byteLength" : 240,
            "byteOffset" : 52800
        },
        {
            "buffer" : 0,
            "byteLength" : 160,
            "byteOffset" : 53040
        }
    ],
    "samplers" : [
        {
            "magFilter" : 9728,
            "minFilter" : 9984
        },
        {
            "magFilter" : 9728,
            "minFilter" : 9984
        }
    ],
    "buffers" : [
        {
            "byteLength" : 53200,
            "uri" : "data:application/octet-stream;base64,"
        }
    ]
}
