{
    "asset" : {
        "generator" : "Khronos glTF Blender I/O v1.1.46",
        "version" : "2.0"
    },
    "scene" : 0,
    "scenes" : [
        {
            "name" : "Scene",
            "nodes" : [
                0
            ]
        }
    ],
    "nodes" : [
        {
            "mesh" : 0,
            "name" : "Cube",
            "scale" : [
                0.38589340448379517,
                0.38589340448379517,
                0.38589340448379517
            ]
        }
    ],
    "meshes" : [
        {
            "name" : "Cube",
            "primitives" : [
                {
                    "attributes" : {
                        "POSITION" : 0,
                        "NORMAL" : 1,
                        "TEXCOORD_0" : 2,
                        "COLOR_0" : 3
                    },
                    "indices" : 4
                }
            ]
        }
    ],
    "accessors" : [
        {
            "bufferView" : 0,
            "componentType" : 5126,
            "count" : 555,
            "max" : [
                9.443790435791016,
                10.88277530670166,
                15.240334510803223
            ],
            "min" : [
                0.32169342041015625,
                -14.298413276672363,
                -13.813512802124023
            ],
            "type" : "VEC3"
        },
        {
            "bufferView" : 1,
            "componentType" : 5126,
            "count" : 555,
            "type" : "VEC3"
        },
        {
            "bufferView" : 2,
            "componentType" : 5126,
            "count" : 555,
            "type" : "VEC2"
        },
        {
            "bufferView" : 3,
            "componentType" : 5126,
            "count" : 555,
            "type" : "VEC4"
        },
        {
            "bufferView" : 4,
            "componentType" : 5123,
            "count" : 558,
            "type" : "SCALAR"
        }
    ],
    "bufferViews" : [
        {
            "buffer" : 0,
            "byteLength" : 6660,
            "byteOffset" : 0
        },
        {
            "buffer" : 0,
            "byteLength" : 6660,
            "byteOffset" : 6660
        },
        {
            "buffer" : 0,
            "byteLength" : 4440,
            "byteOffset" : 13320
        },
        {
            "buffer" : 0,
            "byteLength" : 8880,
            "byteOffset" : 17760
        },
        {
            "buffer" : 0,
            "byteLength" : 1116,
            "byteOffset" : 26640
        }
    ],
    "buffers" : [
        {
            "byteLength" : 27756,
            "uri" : "data:application/octet-stream;base64,"
        }
    ]
}
