{
    "asset" : {
        "generator" : "Khronos glTF Blender I/O v1.1.46",
        "version" : "2.0"
    },
    "scene" : 0,
    "scenes" : [
        {
            "name" : "Scene",
            "nodes" : [
                0
            ]
        }
    ],
    "nodes" : [
        {
            "mesh" : 0,
            "name" : "Cube",
            "scale" : [
                0.38589340448379517,
                0.38589340448379517,
                0.38589340448379517
            ]
        }
    ],
    "meshes" : [
        {
            "name" : "Cube",
            "primitives" : [
                {
                    "attributes" : {
                        "POSITION" : 0,
                        "NORMAL" : 1,
                        "TEXCOORD_0" : 2,
                        "COLOR_0" : 3
                    },
                    "indices" : 4
                }
            ]
        }
    ],
    "accessors" : [
        {
            "bufferView" : 0,
            "componentType" : 5126,
            "count" : 554,
            "max" : [
                13.216808319091797,
                9.09803581237793,
                15.240339279174805
            ],
            "min" : [
                -11.963991165161133,
                -0.18355011940002441,
                -13.813516616821289
            ],
            "type" : "VEC3"
        },
        {
            "bufferView" : 1,
            "componentType" : 5126,
            "count" : 554,
            "type" : "VEC3"
        },
        {
            "bufferView" : 2,
            "componentType" : 5126,
            "count" : 554,
            "type" : "VEC2"
        },
        {
            "bufferView" : 3,
            "componentType" : 5126,
            "count" : 554,
            "type" : "VEC4"
        },
        {
            "bufferView" : 4,
            "componentType" : 5123,
            "count" : 558,
            "type" : "SCALAR"
        }
    ],
    "bufferViews" : [
        {
            "buffer" : 0,
            "byteLength" : 6648,
            "byteOffset" : 0
        },
        {
            "buffer" : 0,
            "byteLength" : 6648,
            "byteOffset" : 6648
        },
        {
            "buffer" : 0,
            "byteLength" : 4432,
            "byteOffset" : 13296
        },
        {
            "buffer" : 0,
            "byteLength" : 8864,
            "byteOffset" : 17728
        },
        {
            "buffer" : 0,
            "byteLength" : 1116,
            "byteOffset" : 26592
        }
    ],
    "buffers" : [
        {
            "byteLength" : 27708,
            "uri" : "data:application/octet-stream;base64,"
        }
    ]
}
