{
    "asset" : {
        "generator" : "Khronos glTF Blender I/O v1.1.46",
        "version" : "2.0"
    },
    "scene" : 0,
    "scenes" : [
        {
            "name" : "Scene",
            "nodes" : [
                0,
                1,
                4
            ]
        }
    ],
    "nodes" : [
        {
            "name" : "Light",
            "rotation" : [
                0.16907575726509094,
                0.7558803558349609,
                -0.27217137813568115,
                0.570947527885437
            ],
            "translation" : [
                4.076245307922363,
                5.903861999511719,
                -1.0054539442062378
            ]
        },
        {
            "name" : "Camera",
            "rotation" : [
                0.483536034822464,
                0.33687159419059753,
                -0.20870360732078552,
                0.7804827094078064
            ],
            "translation" : [
                7.358891487121582,
                4.958309173583984,
                6.925790786743164
            ]
        },
        {
            "mesh" : 0,
            "name" : "Icosphere.004",
            "rotation" : [
                -0.6676576733589172,
                0.04606277123093605,
                0.09576528519392014,
                0.7368449568748474
            ],
            "scale" : [
                0.0425306037068367,
                0.0425305999815464,
                0.042530592530965805
            ],
            "translation" : [
                0.007365822792053223,
                0.0009254813194274902,
                -0.00090829748660326
            ]
        },
        {
            "name" : "Bone"
        },
        {
            "children" : [
                2,
                3
            ],
            "name" : "Armature"
        }
    ],
    "meshes" : [
        {
            "name" : "Icosphere.006",
            "primitives" : [
                {
                    "attributes" : {
                        "POSITION" : 0,
                        "NORMAL" : 1,
                        "TEXCOORD_0" : 2,
                        "COLOR_0" : 3
                    },
                    "indices" : 4
                }
            ]
        }
    ],
    "accessors" : [
        {
            "bufferView" : 0,
            "componentType" : 5126,
            "count" : 6864,
            "max" : [
                0.8754350543022156,
                1.442335844039917,
                1.1694786548614502
            ],
            "min" : [
                -1.151308298110962,
                -0.8928897380828857,
                -1.2154960632324219
            ],
            "type" : "VEC3"
        },
        {
            "bufferView" : 1,
            "componentType" : 5126,
            "count" : 6864,
            "type" : "VEC3"
        },
        {
            "bufferView" : 2,
            "componentType" : 5126,
            "count" : 6864,
            "type" : "VEC2"
        },
        {
            "bufferView" : 3,
            "componentType" : 5126,
            "count" : 6864,
            "type" : "VEC4"
        },
        {
            "bufferView" : 4,
            "componentType" : 5123,
            "count" : 6864,
            "type" : "SCALAR"
        }
    ],
    "bufferViews" : [
        {
            "buffer" : 0,
            "byteLength" : 82368,
            "byteOffset" : 0
        },
        {
            "buffer" : 0,
            "byteLength" : 82368,
            "byteOffset" : 82368
        },
        {
            "buffer" : 0,
            "byteLength" : 54912,
            "byteOffset" : 164736
        },
        {
            "buffer" : 0,
            "byteLength" : 109824,
            "byteOffset" : 219648
        },
        {
            "buffer" : 0,
            "byteLength" : 13728,
            "byteOffset" : 329472
        }
    ],
    "buffers" : [
        {
            "byteLength" : 343200,
            "uri" : "data:application/octet-stream;base64,"
        }
    ]
}
