{
    "asset" : {
        "generator" : "Khronos glTF Blender I/O v1.1.46",
        "version" : "2.0"
    },
    "extensionsUsed" : [
        "KHR_lights_punctual"
    ],
    "extensionsRequired" : [
        "KHR_lights_punctual"
    ],
    "extensions" : {
        "KHR_lights_punctual" : {
            "lights" : [
                {
                    "color" : [
                        1,
                        1,
                        1
                    ],
                    "intensity" : 1000,
                    "type" : "point",
                    "name" : "Light"
                }
            ]
        }
    },
    "scene" : 0,
    "scenes" : [
        {
            "name" : "Scene",
            "nodes" : [
                1,
                3,
                4,
                5,
                6,
                7,
                8,
                9
            ]
        }
    ],
    "nodes" : [
        {
            "extensions" : {
                "KHR_lights_punctual" : {
                    "light" : 0
                }
            },
            "name" : "Light_Orientation",
            "rotation" : [
                -0.7071067690849304,
                0,
                0,
                0.7071067690849304
            ]
        },
        {
            "children" : [
                0
            ],
            "name" : "Light",
            "rotation" : [
                0.16907575726509094,
                0.7558803558349609,
                -0.27217137813568115,
                0.570947527885437
            ],
            "translation" : [
                4.076245307922363,
                5.903861999511719,
                -1.0054539442062378
            ]
        },
        {
            "camera" : 0,
            "name" : "Camera_Orientation",
            "rotation" : [
                -0.7071067690849304,
                0,
                0,
                0.7071067690849304
            ]
        },
        {
            "children" : [
                2
            ],
            "name" : "Camera",
            "rotation" : [
                0.5811266303062439,
                0.2777639627456665,
                -0.22035802900791168,
                0.7325171232223511
            ],
            "translation" : [
                8.178054809570312,
                4.955114364624023,
                11.925559043884277
            ]
        },
        {
            "mesh" : 0,
            "name" : "Cylinder",
            "translation" : [
                3.7044265270233154,
                0.08536135405302048,
                -3.996988534927368
            ]
        },
        {
            "mesh" : 1,
            "name" : "Cube",
            "translation" : [
                2.936119794845581,
                2.538116931915283,
                1.8015213012695312
            ]
        },
        {
            "mesh" : 0,
            "name" : "Cylinder.001",
            "scale" : [
                0.8874474167823792,
                0.8874474167823792,
                0.8874474167823792
            ],
            "translation" : [
                3.468370199203491,
                0.08536151051521301,
                11.22496223449707
            ]
        },
        {
            "mesh" : 0,
            "name" : "Cylinder.002",
            "scale" : [
                0.8501294255256653,
                0.8501294255256653,
                0.8501294255256653
            ],
            "translation" : [
                -11.54590892791748,
                -0.017158156260848045,
                -2.719331741333008
            ]
        },
        {
            "mesh" : 0,
            "name" : "Cylinder.003",
            "scale" : [
                0.8874474167823792,
                0.8874474167823792,
                0.8874474167823792
            ],
            "translation" : [
                6.802685737609863,
                0,
                3.881779193878174
            ]
        },
        {
            "mesh" : 2,
            "name" : "Cube.001",
            "translation" : [
                -1.9678418636322021,
                -1.0619267225265503,
                1.5236926078796387
            ]
        }
    ],
    "cameras" : [
        {
            "name" : "Camera",
            "perspective" : {
                "yfov" : 0.6718132140318145,
                "zfar" : 100,
                "znear" : 0.10000000149011612
            },
            "type" : "perspective"
        }
    ],
    "meshes" : [
        {
            "name" : "Cylinder",
            "primitives" : [
                {
                    "attributes" : {
                        "POSITION" : 0,
                        "NORMAL" : 1,
                        "TEXCOORD_0" : 2,
                        "COLOR_0" : 3
                    },
                    "indices" : 4
                }
            ]
        },
        {
            "name" : "Cube.001",
            "primitives" : [
                {
                    "attributes" : {
                        "POSITION" : 5,
                        "NORMAL" : 6,
                        "TEXCOORD_0" : 7,
                        "COLOR_0" : 8
                    },
                    "indices" : 9
                }
            ]
        },
        {
            "name" : "Cube",
            "primitives" : [
                {
                    "attributes" : {
                        "POSITION" : 10,
                        "NORMAL" : 11,
                        "TEXCOORD_0" : 12,
                        "COLOR_0" : 13
                    },
                    "indices" : 14
                }
            ]
        }
    ],
    "accessors" : [
        {
            "bufferView" : 0,
            "componentType" : 5126,
            "count" : 840,
            "max" : [
                3.016430616378784,
                12.685171127319336,
                2.260737895965576
            ],
            "min" : [
                -1.1710689067840576,
                -0.08832001686096191,
                -2.1422600746154785
            ],
            "type" : "VEC3"
        },
        {
            "bufferView" : 1,
            "componentType" : 5126,
            "count" : 840,
            "type" : "VEC3"
        },
        {
            "bufferView" : 2,
            "componentType" : 5126,
            "count" : 840,
            "type" : "VEC2"
        },
        {
            "bufferView" : 3,
            "componentType" : 5126,
            "count" : 840,
            "type" : "VEC4"
        },
        {
            "bufferView" : 4,
            "componentType" : 5123,
            "count" : 840,
            "type" : "SCALAR"
        },
        {
            "bufferView" : 5,
            "componentType" : 5126,
            "count" : 336,
            "max" : [
                0.28392887115478516,
                2.259275436401367,
                2.708684206008911
            ],
            "min" : [
                -6.022589683532715,
                -2.545123815536499,
                -2.3440539836883545
            ],
            "type" : "VEC3"
        },
        {
            "bufferView" : 6,
            "componentType" : 5126,
            "count" : 336,
            "type" : "VEC3"
        },
        {
            "bufferView" : 7,
            "componentType" : 5126,
            "count" : 336,
            "type" : "VEC2"
        },
        {
            "bufferView" : 8,
            "componentType" : 5126,
            "count" : 336,
            "type" : "VEC4"
        },
        {
            "bufferView" : 9,
            "componentType" : 5123,
            "count" : 336,
            "type" : "SCALAR"
        },
        {
            "bufferView" : 10,
            "componentType" : 5126,
            "count" : 36,
            "max" : [
                10.692113876342773,
                1,
                11.293770790100098
            ],
            "min" : [
                -10.692115783691406,
                -0.9999998807907104,
                -11.293776512145996
            ],
            "type" : "VEC3"
        },
        {
            "bufferView" : 11,
            "componentType" : 5126,
            "count" : 36,
            "type" : "VEC3"
        },
        {
            "bufferView" : 12,
            "componentType" : 5126,
            "count" : 36,
            "type" : "VEC2"
        },
        {
            "bufferView" : 13,
            "componentType" : 5126,
            "count" : 36,
            "type" : "VEC4"
        },
        {
            "bufferView" : 14,
            "componentType" : 5123,
            "count" : 36,
            "type" : "SCALAR"
        }
    ],
    "bufferViews" : [
        {
            "buffer" : 0,
            "byteLength" : 10080,
            "byteOffset" : 0
        },
        {
            "buffer" : 0,
            "byteLength" : 10080,
            "byteOffset" : 10080
        },
        {
            "buffer" : 0,
            "byteLength" : 6720,
            "byteOffset" : 20160
        },
        {
            "buffer" : 0,
            "byteLength" : 13440,
            "byteOffset" : 26880
        },
        {
            "buffer" : 0,
            "byteLength" : 1680,
            "byteOffset" : 40320
        },
        {
            "buffer" : 0,
            "byteLength" : 4032,
            "byteOffset" : 42000
        },
        {
            "buffer" : 0,
            "byteLength" : 4032,
            "byteOffset" : 46032
        },
        {
            "buffer" : 0,
            "byteLength" : 2688,
            "byteOffset" : 50064
        },
        {
            "buffer" : 0,
            "byteLength" : 5376,
            "byteOffset" : 52752
        },
        {
            "buffer" : 0,
            "byteLength" : 672,
            "byteOffset" : 58128
        },
        {
            "buffer" : 0,
            "byteLength" : 432,
            "byteOffset" : 58800
        },
        {
            "buffer" : 0,
            "byteLength" : 432,
            "byteOffset" : 59232
        },
        {
            "buffer" : 0,
            "byteLength" : 288,
            "byteOffset" : 59664
        },
        {
            "buffer" : 0,
            "byteLength" : 576,
            "byteOffset" : 59952
        },
        {
            "buffer" : 0,
            "byteLength" : 72,
            "byteOffset" : 60528
        }
    ],
    "buffers" : [
        {
            "byteLength" : 60600,
            "uri" : "data:application/octet-stream;base64,"
        }
    ]
}
