{
    "asset" : {
        "generator" : "Khronos glTF Blender I/O v1.1.46",
        "version" : "2.0"
    },
    "scene" : 0,
    "scenes" : [
        {
            "extras" : {
                "prop" : 1,
                "prop1" : 0.9300000667572021
            },
            "name" : "Scene",
            "nodes" : [
                0,
                1,
                3,
                4,
                5,
                6,
                7,
                8,
                9,
                10,
                11,
                12,
                13,
                14
            ]
        }
    ],
    "nodes" : [
        {
            "mesh" : 0,
            "name" : "Cube",
            "translation" : [
                18.64175033569336,
                -1.0480644702911377,
                17.534639358520508
            ]
        },
        {
            "name" : "Light",
            "rotation" : [
                0.16907575726509094,
                0.7558803558349609,
                -0.27217137813568115,
                0.570947527885437
            ],
            "translation" : [
                4.076245307922363,
                5.903861999511719,
                -1.0054539442062378
            ]
        },
        {
            "camera" : 0,
            "name" : "Camera_Orientation",
            "rotation" : [
                -0.7071067690849304,
                0,
                0,
                0.7071067690849304
            ]
        },
        {
            "children" : [
                2
            ],
            "name" : "Camera",
            "rotation" : [
                0.483536034822464,
                0.33687159419059753,
                -0.20870360732078552,
                0.7804827094078064
            ],
            "translation" : [
                7.358891487121582,
                4.958309173583984,
                6.925790786743164
            ]
        },
        {
            "mesh" : 1,
            "name" : "Cube.001",
            "translation" : [
                18.564098358154297,
                0,
                2.1826424598693848
            ]
        },
        {
            "mesh" : 2,
            "name" : "Cube.002",
            "rotation" : [
                0,
                0.7080549597740173,
                0,
                0.7061573266983032
            ],
            "translation" : [
                4.773243427276611,
                0,
                2.1826424598693848
            ]
        },
        {
            "mesh" : 3,
            "name" : "Cube.003",
            "scale" : [
                1,
                1,
                -1
            ],
            "translation" : [
                18.564098358154297,
                0,
                -5.824582099914551
            ]
        },
        {
            "mesh" : 4,
            "name" : "Cube.004",
            "rotation" : [
                0,
                0.7080549597740173,
                0,
                0.7061573266983032
            ],
            "scale" : [
                -1,
                1,
                1
            ],
            "translation" : [
                4.773243427276611,
                0,
                -5.824582099914551
            ]
        },
        {
            "mesh" : 5,
            "name" : "Cube.005",
            "scale" : [
                -1,
                1,
                1
            ],
            "translation" : [
                -25.315589904785156,
                0,
                2.182642698287964
            ]
        },
        {
            "extras" : {
                "prop" : 1
            },
            "mesh" : 6,
            "name" : "Cube.006",
            "rotation" : [
                0,
                0.7080549597740173,
                0,
                0.7061573266983032
            ],
            "scale" : [
                1,
                1,
                -1
            ],
            "translation" : [
                -11.524734497070312,
                0,
                2.182642698287964
            ]
        },
        {
            "mesh" : 7,
            "name" : "Cube.007",
            "scale" : [
                -1,
                1,
                -1
            ],
            "translation" : [
                -25.315589904785156,
                0,
                -5.824582099914551
            ]
        },
        {
            "mesh" : 8,
            "name" : "Cube.008",
            "rotation" : [
                0,
                0.7080549597740173,
                0,
                0.7061573266983032
            ],
            "scale" : [
                -1,
                1,
                -1
            ],
            "translation" : [
                -11.524734497070312,
                0,
                -5.824582099914551
            ]
        },
        {
            "mesh" : 9,
            "name" : "Cube.009",
            "scale" : [
                8.841309547424316,
                4.209073066711426,
                5.654848098754883
            ],
            "translation" : [
                14.756495475769043,
                4.16921329498291,
                -10.69461441040039
            ]
        },
        {
            "mesh" : 9,
            "name" : "Cube.010",
            "scale" : [
                8.841309547424316,
                4.209073066711426,
                5.654848098754883
            ],
            "translation" : [
                14.756495475769043,
                4.16921329498291,
                15.013710021972656
            ]
        },
        {
            "extras" : {
                "prop" : 1,
                "prop1" : 1,
                "prop2" : 1
            },
            "name" : "Empty",
            "scale" : [
                5,
                1,
                1
            ],
            "translation" : [
                0.08825773000717163,
                1.040431261062622,
                9.017607688903809
            ]
        }
    ],
    "cameras" : [
        {
            "name" : "Camera",
            "perspective" : {
                "yfov" : 0.39959648408210363,
                "zfar" : 100,
                "znear" : 0.10000000149011612
            },
            "type" : "perspective"
        }
    ],
    "materials" : [
        {
            "doubleSided" : true,
            "emissiveFactor" : [
                0,
                0,
                0
            ],
            "name" : "Material",
            "pbrMetallicRoughness" : {
                "baseColorFactor" : [
                    0.800000011920929,
                    0.800000011920929,
                    0.800000011920929,
                    1
                ],
                "metallicFactor" : 0,
                "roughnessFactor" : 0.4000000059604645
            }
        }
    ],
    "meshes" : [
        {
            "name" : "Cube",
            "primitives" : [
                {
                    "attributes" : {
                        "POSITION" : 0,
                        "NORMAL" : 1,
                        "TEXCOORD_0" : 2
                    },
                    "indices" : 3,
                    "material" : 0
                }
            ]
        },
        {
            "name" : "Cube.001",
            "primitives" : [
                {
                    "attributes" : {
                        "POSITION" : 4,
                        "NORMAL" : 5,
                        "TEXCOORD_0" : 6
                    },
                    "indices" : 3
                }
            ]
        },
        {
            "name" : "Cube.002",
            "primitives" : [
                {
                    "attributes" : {
                        "POSITION" : 7,
                        "NORMAL" : 8,
                        "TEXCOORD_0" : 9
                    },
                    "indices" : 10
                }
            ]
        },
        {
            "name" : "Cube.003",
            "primitives" : [
                {
                    "attributes" : {
                        "POSITION" : 11,
                        "NORMAL" : 12,
                        "TEXCOORD_0" : 13
                    },
                    "indices" : 3
                }
            ]
        },
        {
            "name" : "Cube.004",
            "primitives" : [
                {
                    "attributes" : {
                        "POSITION" : 14,
                        "NORMAL" : 15,
                        "TEXCOORD_0" : 16
                    },
                    "indices" : 10
                }
            ]
        },
        {
            "name" : "Cube.005",
            "primitives" : [
                {
                    "attributes" : {
                        "POSITION" : 17,
                        "NORMAL" : 18,
                        "TEXCOORD_0" : 19
                    },
                    "indices" : 3
                }
            ]
        },
        {
            "name" : "Cube.006",
            "primitives" : [
                {
                    "attributes" : {
                        "POSITION" : 20,
                        "NORMAL" : 21,
                        "TEXCOORD_0" : 22
                    },
                    "indices" : 10
                }
            ]
        },
        {
            "name" : "Cube.007",
            "primitives" : [
                {
                    "attributes" : {
                        "POSITION" : 23,
                        "NORMAL" : 24,
                        "TEXCOORD_0" : 25
                    },
                    "indices" : 3
                }
            ]
        },
        {
            "name" : "Cube.008",
            "primitives" : [
                {
                    "attributes" : {
                        "POSITION" : 26,
                        "NORMAL" : 27,
                        "TEXCOORD_0" : 28
                    },
                    "indices" : 10
                }
            ]
        },
        {
            "name" : "Cube.009",
            "primitives" : [
                {
                    "attributes" : {
                        "POSITION" : 29,
                        "NORMAL" : 30,
                        "TEXCOORD_0" : 31
                    },
                    "indices" : 3
                }
            ]
        }
    ],
    "accessors" : [
        {
            "bufferView" : 0,
            "componentType" : 5126,
            "count" : 24,
            "max" : [
                1,
                1,
                1
            ],
            "min" : [
                -45.08277893066406,
                -1,
                -39.904441833496094
            ],
            "type" : "VEC3"
        },
        {
            "bufferView" : 1,
            "componentType" : 5126,
            "count" : 24,
            "type" : "VEC3"
        },
        {
            "bufferView" : 2,
            "componentType" : 5126,
            "count" : 24,
            "type" : "VEC2"
        },
        {
            "bufferView" : 3,
            "componentType" : 5123,
            "count" : 36,
            "type" : "SCALAR"
        },
        {
            "bufferView" : 4,
            "componentType" : 5126,
            "count" : 24,
            "max" : [
                1,
                0.07552504539489746,
                1
            ],
            "min" : [
                -12.769685745239258,
                -1,
                -1
            ],
            "type" : "VEC3"
        },
        {
            "bufferView" : 5,
            "componentType" : 5126,
            "count" : 24,
            "type" : "VEC3"
        },
        {
            "bufferView" : 6,
            "componentType" : 5126,
            "count" : 24,
            "type" : "VEC2"
        },
        {
            "bufferView" : 7,
            "componentType" : 5126,
            "count" : 24,
            "max" : [
                1,
                0.07552504539489746,
                1
            ],
            "min" : [
                -16.487289428710938,
                -1,
                -1.009976863861084
            ],
            "type" : "VEC3"
        },
        {
            "bufferView" : 8,
            "componentType" : 5126,
            "count" : 24,
            "type" : "VEC3"
        },
        {
            "bufferView" : 9,
            "componentType" : 5126,
            "count" : 24,
            "type" : "VEC2"
        },
        {
            "bufferView" : 10,
            "componentType" : 5123,
            "count" : 36,
            "type" : "SCALAR"
        },
        {
            "bufferView" : 11,
            "componentType" : 5126,
            "count" : 24,
            "max" : [
                1,
                0.07552504539489746,
                1
            ],
            "min" : [
                -12.769685745239258,
                -1,
                -1
            ],
            "type" : "VEC3"
        },
        {
            "bufferView" : 12,
            "componentType" : 5126,
            "count" : 24,
            "type" : "VEC3"
        },
        {
            "bufferView" : 13,
            "componentType" : 5126,
            "count" : 24,
            "type" : "VEC2"
        },
        {
            "bufferView" : 14,
            "componentType" : 5126,
            "count" : 24,
            "max" : [
                1,
                0.07552504539489746,
                1
            ],
            "min" : [
                -16.487289428710938,
                -1,
                -1.009976863861084
            ],
            "type" : "VEC3"
        },
        {
            "bufferView" : 15,
            "componentType" : 5126,
            "count" : 24,
            "type" : "VEC3"
        },
        {
            "bufferView" : 16,
            "componentType" : 5126,
            "count" : 24,
            "type" : "VEC2"
        },
        {
            "bufferView" : 17,
            "componentType" : 5126,
            "count" : 24,
            "max" : [
                1,
                0.07552504539489746,
                1
            ],
            "min" : [
                -12.769685745239258,
                -1,
                -1
            ],
            "type" : "VEC3"
        },
        {
            "bufferView" : 18,
            "componentType" : 5126,
            "count" : 24,
            "type" : "VEC3"
        },
        {
            "bufferView" : 19,
            "componentType" : 5126,
            "count" : 24,
            "type" : "VEC2"
        },
        {
            "bufferView" : 20,
            "componentType" : 5126,
            "count" : 24,
            "max" : [
                1,
                0.07552504539489746,
                1
            ],
            "min" : [
                -16.487289428710938,
                -1,
                -1.009976863861084
            ],
            "type" : "VEC3"
        },
        {
            "bufferView" : 21,
            "componentType" : 5126,
            "count" : 24,
            "type" : "VEC3"
        },
        {
            "bufferView" : 22,
            "componentType" : 5126,
            "count" : 24,
            "type" : "VEC2"
        },
        {
            "bufferView" : 23,
            "componentType" : 5126,
            "count" : 24,
            "max" : [
                1,
                0.07552504539489746,
                1
            ],
            "min" : [
                -12.769685745239258,
                -1,
                -1
            ],
            "type" : "VEC3"
        },
        {
            "bufferView" : 24,
            "componentType" : 5126,
            "count" : 24,
            "type" : "VEC3"
        },
        {
            "bufferView" : 25,
            "componentType" : 5126,
            "count" : 24,
            "type" : "VEC2"
        },
        {
            "bufferView" : 26,
            "componentType" : 5126,
            "count" : 24,
            "max" : [
                1,
                0.07552504539489746,
                1
            ],
            "min" : [
                -16.487289428710938,
                -1,
                -1.009976863861084
            ],
            "type" : "VEC3"
        },
        {
            "bufferView" : 27,
            "componentType" : 5126,
            "count" : 24,
            "type" : "VEC3"
        },
        {
            "bufferView" : 28,
            "componentType" : 5126,
            "count" : 24,
            "type" : "VEC2"
        },
        {
            "bufferView" : 29,
            "componentType" : 5126,
            "count" : 24,
            "max" : [
                0.5522022843360901,
                4.717037200927734,
                0.6529146432876587
            ],
            "min" : [
                -1,
                -1,
                -2.0695481300354004
            ],
            "type" : "VEC3"
        },
        {
            "bufferView" : 30,
            "componentType" : 5126,
            "count" : 24,
            "type" : "VEC3"
        },
        {
            "bufferView" : 31,
            "componentType" : 5126,
            "count" : 24,
            "type" : "VEC2"
        }
    ],
    "bufferViews" : [
        {
            "buffer" : 0,
            "byteLength" : 288,
            "byteOffset" : 0
        },
        {
            "buffer" : 0,
            "byteLength" : 288,
            "byteOffset" : 288
        },
        {
            "buffer" : 0,
            "byteLength" : 192,
            "byteOffset" : 576
        },
        {
            "buffer" : 0,
            "byteLength" : 72,
            "byteOffset" : 768
        },
        {
            "buffer" : 0,
            "byteLength" : 288,
            "byteOffset" : 840
        },
        {
            "buffer" : 0,
            "byteLength" : 288,
            "byteOffset" : 1128
        },
        {
            "buffer" : 0,
            "byteLength" : 192,
            "byteOffset" : 1416
        },
        {
            "buffer" : 0,
            "byteLength" : 288,
            "byteOffset" : 1608
        },
        {
            "buffer" : 0,
            "byteLength" : 288,
            "byteOffset" : 1896
        },
        {
            "buffer" : 0,
            "byteLength" : 192,
            "byteOffset" : 2184
        },
        {
            "buffer" : 0,
            "byteLength" : 72,
            "byteOffset" : 2376
        },
        {
            "buffer" : 0,
            "byteLength" : 288,
            "byteOffset" : 2448
        },
        {
            "buffer" : 0,
            "byteLength" : 288,
            "byteOffset" : 2736
        },
        {
            "buffer" : 0,
            "byteLength" : 192,
            "byteOffset" : 3024
        },
        {
            "buffer" : 0,
            "byteLength" : 288,
            "byteOffset" : 3216
        },
        {
            "buffer" : 0,
            "byteLength" : 288,
            "byteOffset" : 3504
        },
        {
            "buffer" : 0,
            "byteLength" : 192,
            "byteOffset" : 3792
        },
        {
            "buffer" : 0,
            "byteLength" : 288,
            "byteOffset" : 3984
        },
        {
            "buffer" : 0,
            "byteLength" : 288,
            "byteOffset" : 4272
        },
        {
            "buffer" : 0,
            "byteLength" : 192,
            "byteOffset" : 4560
        },
        {
            "buffer" : 0,
            "byteLength" : 288,
            "byteOffset" : 4752
        },
        {
            "buffer" : 0,
            "byteLength" : 288,
            "byteOffset" : 5040
        },
        {
            "buffer" : 0,
            "byteLength" : 192,
            "byteOffset" : 5328
        },
        {
            "buffer" : 0,
            "byteLength" : 288,
            "byteOffset" : 5520
        },
        {
            "buffer" : 0,
            "byteLength" : 288,
            "byteOffset" : 5808
        },
        {
            "buffer" : 0,
            "byteLength" : 192,
            "byteOffset" : 6096
        },
        {
            "buffer" : 0,
            "byteLength" : 288,
            "byteOffset" : 6288
        },
        {
            "buffer" : 0,
            "byteLength" : 288,
            "byteOffset" : 6576
        },
        {
            "buffer" : 0,
            "byteLength" : 192,
            "byteOffset" : 6864
        },
        {
            "buffer" : 0,
            "byteLength" : 288,
            "byteOffset" : 7056
        },
        {
            "buffer" : 0,
            "byteLength" : 288,
            "byteOffset" : 7344
        },
        {
            "buffer" : 0,
            "byteLength" : 192,
            "byteOffset" : 7632
        }
    ],
    "buffers" : [
        {
            "byteLength" : 7824,
            "uri" : "data:application/octet-stream;base64,"
        }
    ]
}
